<svg width="160" height="13" viewBox="0 0 160 13" xmlns="http://www.w3.org/2000/svg">
    <g fill="#FFF" fill-rule="nonzero">
        <path d="M67 0h3v12h-3zM80.986 7.337h-.036L76.014 0H73v12h3.014V4.646h.03L80.986 12H84V0h-3.014zM118 2.638h2.513V12h2.974V2.638H126V0h-8zM138 0h3v12h-3zM144 12h7V9.356h-3.892V7.284h3.7V4.646h-3.7V2.638H151V0h-7zM156.999 5.252c-1.176-.455-1.794-.848-1.794-1.533 0-.684.596-1.066 1.203-1.036 1.009.055 1.862.818 1.862.818l1.22-2.271S158.214 0 156.18 0s-3.768 1.393-3.885 3.72c-.111 2.301 1.589 3.276 2.592 3.706.975.412 2.184.691 2.184 1.63s-.847 1.205-1.454 1.193c-.641-.006-1.65-.327-2.497-1.078L152 11.588c.48.406 2.045 1.375 3.795 1.411 2.001.037 4.481-1.296 4.18-4.482-.173-1.86-1.767-2.793-2.976-3.265zM114.01 5.252c-1.176-.455-1.794-.848-1.794-1.533 0-.684.596-1.066 1.203-1.036 1.01.055 1.862.818 1.862.818l1.22-2.271S115.225 0 113.191 0s-3.767 1.393-3.884 3.72c-.112 2.301 1.588 3.276 2.591 3.706.975.412 2.185.691 2.185 1.63s-.847 1.205-1.46 1.193c-.641-.006-1.65-.327-2.497-1.078L109 11.588c.48.406 2.05 1.375 3.795 1.411 2.001.037 4.481-1.296 4.18-4.482-.173-1.86-1.767-2.793-2.976-3.265h.011zM104.02 7.361c0 1.654-.533 2.754-2.017 2.754s-2.023-1.1-2.023-2.754V0H97v7.635C97 12.217 99.95 13 102.003 13c2.052 0 4.997-.79 4.997-5.365V0h-2.98v7.361zM90.29 0H86v12h4.29C93.47 12 96 10.204 96 6s-2.525-6-5.71-6zm-.759 10H89V3h.531C92.075 3 93 4.22 93 6.503 93 8.785 92.075 10 89.531 10zM136.43 3.692c0-2.561-1.821-3.692-4.05-3.692H128v12h2.932V7.384h.03L133.764 12H137l-3.17-4.917c1.6-.3 2.6-1.737 2.6-3.391zM131.307 5H131V2h.337c.829 0 1.663.194 1.663 1.497 0 1.303-.864 1.497-1.693 1.497V5z"/>
        <g>
            <path d="M17.5 0A6.498 6.498 0 0 0 11 6.5c0 3.591 2.909 6.5 6.5 6.5S24 10.091 24 6.5 21.091 0 17.5 0zm0 10C15.57 10 14 8.43 14 6.5S15.57 3 17.5 3 21 4.57 21 6.5 19.43 10 17.5 10zM41.5 0A6.498 6.498 0 0 0 35 6.5c0 3.591 2.909 6.5 6.5 6.5S48 10.091 48 6.5 45.091 0 41.5 0zm.003 10a3.501 3.501 0 1 1-.004-7.002A3.501 3.501 0 0 1 41.503 10zM30.01 0H27v12h7V9.22h-3.99z"/>
            <path d="M7.027 0 3.181 4.981V.006H0V12h3.18V7.019l3.847 4.975H11L6.133 6 11 0zM58.96 0v6.866h-.028L54.068 0H51v12h3.034V4.658h.034L59.276 12H62V0z"/>
        </g>
    </g>
</svg>
